name GIL08_slow4Moments.mot
datacolumns 7
datarows 67
range 0.21666671 0.76666671
endheader

                time	          RHipMoment	          LHipMoment	         RKneeMoment	         LKneeMoment	        RAnkleMoment	        LAnkleMoment	
          0.21666671	        -27.59037971	        261.10580444	        -30.71739388	         30.67564392	        -10.22324467	         78.97161102	
          0.22500004	        -52.87366867	        265.27035522	        -19.11166763	         29.35570717	        -10.16371918	         85.41178894	
          0.23333338	        -62.81139755	        264.19763184	        -12.25754261	         29.99804878	        -10.05031967	         91.36092377	
          0.24166670	        -64.85534668	        261.49224854	         -9.03640747	         31.03575706	         -9.81307602	         96.98802185	
          0.25000003	        -58.30294037	        252.02929688	        -11.56580448	         33.58737183	         -9.39385986	        102.56636810	
          0.25833338	        -42.94776917	        237.83535767	        -19.37199020	         36.54780579	         -8.87045860	        107.78479767	
          0.26666671	        -33.79482651	        225.47828674	        -25.59155083	         36.90141678	         -8.38823223	        114.18989563	
          0.27500004	        -45.50203323	        212.34257507	        -24.07688141	         37.70875168	         -8.08523941	        120.58720398	
          0.28333336	        -66.89665985	        193.86944580	        -18.90769196	         40.06776047	         -7.98393869	        126.87926483	
          0.29166672	        -76.40550232	        168.66929626	        -18.08819962	         43.12122726	         -8.00752831	        132.72512817	
          0.30000004	        -72.47834015	        149.75886536	        -21.07781410	         42.93890381	         -8.09199429	        139.17109680	
          0.30833337	        -70.77773285	        141.64236450	        -22.91198921	         39.92602539	         -8.29150581	        146.06452942	
          0.31666672	        -72.58110046	        135.79252625	        -24.37613106	         36.11439896	         -8.70264626	        154.56567383	
          0.32500005	        -60.17019272	        123.19960785	        -29.94719505	         34.46207047	         -9.23022366	        164.32017517	
          0.33333337	        -34.61173630	        107.21498108	        -38.94382477	         34.29541397	         -9.68314934	        174.58067322	
          0.34166670	        -21.17942810	         96.47288513	        -44.49179077	         33.42930603	        -10.02243042	        186.24577332	
          0.35000002	        -31.65511513	         89.06378937	        -42.81416702	         32.82732773	        -10.34119892	        197.89857483	
          0.35833338	        -52.64156723	         81.98062134	        -37.87617493	         30.45624733	        -10.71571541	        210.51945496	
          0.36666670	        -67.27174377	         77.18197632	        -34.34163666	         25.58882904	        -11.07806683	        224.07958984	
          0.37500006	        -74.57162476	         75.85866547	        -32.95579910	         19.61936760	        -11.40437126	        238.32946777	
          0.38333338	        -82.88477325	         74.52046967	        -32.30188751	         12.90733433	        -11.88928223	        254.53547668	
          0.39166671	        -91.73790741	         65.56219482	        -31.56504059	          8.02459240	        -12.56717873	        271.90142822	
          0.40000004	        -93.90211487	         51.07139206	        -31.70821571	          4.48155165	        -13.17537403	        289.60565186	
          0.40833336	        -85.15359497	         39.16978073	        -34.08057785	          1.57015085	        -13.60803890	        307.62951660	
          0.41666669	        -70.48325348	         34.79696655	        -37.89141083	         -2.83804703	        -14.02131176	        327.01828003	
          0.42500004	        -59.52619171	         37.56391907	        -41.54396057	         -9.68249226	        -14.52549458	        346.22784424	
          0.43333337	        -54.53073502	         42.46751404	        -44.88008499	        -18.14818764	        -15.06506634	        365.69558716	
          0.44166672	        -51.38074112	         38.53829193	        -47.82888412	        -25.11271286	        -15.53115368	        386.30291748	
          0.45000005	        -42.62212753	         29.41075897	        -49.67490768	        -29.89583969	        -15.83611679	        408.81286621	
          0.45833337	        -27.23688316	         33.52464294	        -49.70875168	        -33.75716400	        -15.92953300	        431.23202515	
          0.46666670	        -30.75489426	         32.24414063	        -46.84730530	        -40.88189697	        -15.80373955	        453.71780396	
          0.47500005	        -65.20997620	         -9.52893829	        -41.81608963	        -49.55382156	        -15.50952530	        476.14334106	
          0.48333338	        -86.33958435	        -41.76146317	        -38.00107574	        -57.48820496	        -15.21432209	        498.79309082	
          0.49166670	        -83.65335083	        -41.66316223	        -36.83176422	        -69.31557465	        -15.03507900	        523.43603516	
          0.50000000	        -65.35587311	        -19.48803902	        -39.12002182	        -83.61386108	        -15.08475494	        550.18951416	
          0.50833338	        -45.77399445	         -7.43331480	        -43.70898819	        -95.66329193	        -15.41922855	        578.11553955	
          0.51666671	        -29.35415649	         -5.55085468	        -47.12674332	       -106.52777863	        -15.75268173	        607.08795166	
          0.52500004	        -11.00547504	          4.33798599	        -48.38958740	       -115.95437622	        -15.78687286	        637.28149414	
          0.53333336	          7.94412088	         27.15082359	        -48.82141876	       -126.97470093	        -15.59776020	        670.12127686	
          0.54166675	         -3.36259413	          6.32481480	        -47.10178757	       -139.32368469	        -15.31129646	        704.94360352	
          0.55000007	        -28.77151680	        -33.09597015	        -43.44145203	       -152.49378967	        -14.97911358	        742.55548096	
          0.55833340	        -44.92224884	        -61.45727158	        -40.08584595	       -163.66580200	        -14.74122429	        782.46148682	
          0.56666672	        -46.21014404	        -71.07823944	        -38.56035995	       -174.74771118	        -14.67464256	        823.21441650	
          0.57500005	        -36.11069107	        -66.50606537	        -38.31777954	       -186.37977600	        -14.63827324	        860.76556396	
          0.58333337	        -28.06484413	        -62.08171082	        -37.19137192	       -198.48161316	        -14.44608116	        891.67431641	
          0.59166670	        -26.83395386	        -69.27661896	        -35.08902359	       -208.92929077	        -14.12925339	        925.07025146	
          0.60000002	        -21.61452293	        -73.93876648	        -34.85680389	       -220.18150330	        -13.78133106	        962.35473633	
          0.60833335	        -10.51076698	        -77.99008179	        -36.84014511	       -229.86442566	        -13.37020779	        998.76129150	
          0.61666667	         -2.80789042	        -85.21595001	        -38.31584930	       -240.13209534	        -12.93775558	       1034.48754883	
          0.62500000	         -0.55463594	        -89.23928070	        -38.65563202	       -252.23510742	        -12.67159843	       1069.66113281	
          0.63333338	          3.08027649	        -81.93939209	        -39.64327240	       -265.12854004	        -12.62915611	       1104.09045410	
          0.64166671	         11.13980484	        -81.77065277	        -41.35941315	       -274.75375366	        -12.58498573	       1138.96826172	
          0.65000004	         18.93182945	       -108.15294647	        -42.16556931	       -277.59301758	        -12.35361862	       1174.02172852	
          0.65833336	         26.36536407	       -141.38514709	        -42.81448364	       -277.14978027	        -12.02839279	       1207.72277832	
          0.66666675	         40.62823486	       -161.25711060	        -46.35196686	       -278.22262573	        -11.71345711	       1240.42333984	
          0.67500007	         61.71082687	       -174.91722107	        -53.07378387	       -279.42465210	        -11.30322075	       1271.61413574	
          0.68333340	         79.35771179	       -189.71086121	        -58.90658569	       -279.05209351	        -10.78923798	       1300.33166504	
          0.69166672	         89.22832489	       -200.39450073	        -61.99985123	       -277.82254028	        -10.48145771	       1325.15588379	
          0.70000005	         94.90593719	       -195.72335815	        -64.48820496	       -278.44555664	        -10.55317783	       1346.83972168	
          0.70833337	         96.21973419	       -183.75845337	        -66.40998077	       -279.72879028	        -10.80468559	       1366.46948242	
          0.71666670	         87.53176880	       -215.78233337	        -65.10794067	       -263.10363770	        -11.07138252	       1383.31140137	
          0.72500002	         68.36828613	       -257.79714966	        -60.37249374	       -243.69917297	        -11.39468765	       1396.35595703	
          0.73333335	         49.13642120	       -282.93157959	        -55.10816956	       -227.09243774	        -11.82829571	       1406.55822754	
          0.74166673	         38.62368011	       -299.27026367	        -50.80397415	       -205.17628479	        -12.23917007	       1412.36804199	
          0.75000006	         28.74406052	       -312.53033447	        -44.00757217	       -179.43647766	        -12.41032982	       1414.53100586	
          0.75833338	          3.82855630	       -324.96887207	        -30.12617302	       -151.75419617	        -12.49744892	       1410.86254883	
          0.76666671	        -37.40826035	       -335.96588135	         -6.82928896	       -121.92178345	        -16.19510841	       1401.43737793	
